<svg height="512" viewBox="0 0 128 128" width="512" xmlns="http://www.w3.org/2000/svg"><g><g><g><rect fill="#c5dcf7" height="55.772" rx="3.434" width="79.602" x="24.197" y="27.35"/><path d="m100.365 27.35h-72.735a3.433 3.433 0 0 0 -3.43 3.433v40.6h79.6v-40.6a3.433 3.433 0 0 0 -3.435-3.433z" fill="#e9f1f8"/><path d="m74.039 93.06h-20.083l2.378-9.938h15.327z" fill="#224071"/><path d="m80.664 100.65h-33.333l2-7.59h29.333z" fill="#455e9f"/></g><path d="m53.385 56.979v-21.224l21.224 10.612z" fill="#fd4b4a"/><path d="m91.331 66.417h-54.667a1.75 1.75 0 0 1 0-3.5h54.667a1.75 1.75 0 0 1 0 3.5z" fill="#a6d12b"/></g><g fill="#001c5b"><path d="m53.388 58.729a1.743 1.743 0 0 0 .783-.185l21.229-10.612a1.751 1.751 0 0 0 0-3.131l-21.229-10.612a1.751 1.751 0 0 0 -2.533 1.566v21.224a1.749 1.749 0 0 0 1.75 1.75zm1.75-20.143 15.562 7.781-15.561 7.78z"/><path d="m44.375 29.1h1.125a1.75 1.75 0 0 0 0-3.5h-1.125a1.75 1.75 0 0 0 0 3.5z"/><path d="m100.367 25.6h-48.712a1.75 1.75 0 0 0 0 3.5h48.712a1.686 1.686 0 0 1 1.684 1.683v48.905a1.687 1.687 0 0 1 -1.684 1.684h-16.617a1.75 1.75 0 0 0 0 3.5h16.617a5.19 5.19 0 0 0 5.184-5.184v-48.9a5.189 5.189 0 0 0 -5.184-5.188z"/><path d="m77.25 81.372a1.75 1.75 0 0 0 0 3.5h.917a1.75 1.75 0 0 0 0-3.5z"/><path d="m80.359 92.614a1.75 1.75 0 0 0 -1.692-1.3h-3.245l-2.056-8.6s-.008-.007-.009-.012a1.747 1.747 0 0 0 -1.694-1.33h-44.03a1.687 1.687 0 0 1 -1.684-1.684v-6.554h70.3a1.75 1.75 0 0 0 0-3.5h-70.3v-38.851a1.686 1.686 0 0 1 1.684-1.683h10.867a1.75 1.75 0 0 0 0-3.5h-10.867a5.189 5.189 0 0 0 -5.184 5.183v48.905a5.19 5.19 0 0 0 5.184 5.184h42.65l1.54 6.438h-15.646l.5-2.076a1.75 1.75 0 0 0 -3.4-.815l-.691 2.891h-3.253a1.75 1.75 0 0 0 -1.692 1.3l-2 7.591a1.749 1.749 0 0 0 1.692 2.2h33.334a1.749 1.749 0 0 0 1.692-2.2zm-30.759 6.286 1.078-4.09h26.64l1.082 4.09z"/><path d="m34.917 64.667a1.75 1.75 0 0 0 1.75 1.75h54.666a1.75 1.75 0 0 0 0-3.5h-54.666a1.749 1.749 0 0 0 -1.75 1.75z"/></g></g></svg>