<svg id="Solid" height="512" viewBox="0 0 512 512" width="512" xmlns="http://www.w3.org/2000/svg" xmlns:xlink="http://www.w3.org/1999/xlink"><linearGradient id="linear-gradient" gradientUnits="userSpaceOnUse" x1="98.348" x2="98.348" y1="-46.369" y2="567.703"><stop offset="0" stop-color="#ff91d2"/><stop offset=".262" stop-color="#f68bd9"/><stop offset=".688" stop-color="#de79ed"/><stop offset=".999" stop-color="#c86aff"/></linearGradient><linearGradient id="linear-gradient-2" x1="413.652" x2="413.652" xlink:href="#linear-gradient" y1="-46.369" y2="567.703"/><linearGradient id="linear-gradient-3" x1="256" x2="256" xlink:href="#linear-gradient" y1="-46.369" y2="567.703"/><linearGradient id="linear-gradient-4" x1="255.983" x2="255.983" xlink:href="#linear-gradient" y1="-46.369" y2="567.703"/><linearGradient id="linear-gradient-5" x1="255.97" x2="255.97" xlink:href="#linear-gradient" y1="-46.369" y2="567.703"/><linearGradient id="linear-gradient-6" x1="456" x2="456" xlink:href="#linear-gradient" y1="-46.369" y2="567.703"/><linearGradient id="linear-gradient-8" x1="440" x2="440" xlink:href="#linear-gradient" y1="-46.369" y2="567.703"/><linearGradient id="linear-gradient-9" x1="472" x2="472" xlink:href="#linear-gradient" y1="-46.369" y2="567.703"/><linearGradient id="linear-gradient-10" x1="56" x2="56" xlink:href="#linear-gradient" y1="-46.369" y2="567.703"/><linearGradient id="linear-gradient-12" x1="40" x2="40" xlink:href="#linear-gradient" y1="-46.369" y2="567.703"/><linearGradient id="linear-gradient-13" x1="72" x2="72" xlink:href="#linear-gradient" y1="-46.369" y2="567.703"/><g><path d="m164.405 397.839-4.372 48.1c-.022.24-.033.482-.033.724v32h-64v-32a8 8 0 0 0 -.933-3.749l-63.067-118.914v-140a39.378 39.378 0 0 1 32 38.666v87.954a7.98 7.98 0 0 0 1.3 4.413l.007.01v.008.008l.007.011v.006l.012.017 32 48a8 8 0 1 0 13.312-8.875l-28.238-42.386a24 24 0 0 1 30.819 1.085l27.648 24.883a72.333 72.333 0 0 1 23.538 60.039z" fill="url(#linear-gradient)"/><path d="m480 324-63.067 118.912a8 8 0 0 0 -.933 3.749v32h-64v-32c0-.242-.011-.484-.033-.724l-4.372-48.1a72.333 72.333 0 0 1 23.538-60.037l27.653-24.886a24 24 0 0 1 30.818-1.085l-28.26 42.391a8 8 0 1 0 13.312 8.875l32-48 .012-.017v-.006l.007-.011.005-.008v-.008l.007-.01a7.98 7.98 0 0 0 1.3-4.413v-87.956a39.378 39.378 0 0 1 32.013-38.666z" fill="url(#linear-gradient-2)"/><g><path d="m208 192a48 48 0 1 0 48-48 48.055 48.055 0 0 0 -48 48zm32 32h-16v-16h16zm0-72h16v16h-16zm40 40h16v16h-16zm-16 8h-16v-16h16z" fill="url(#linear-gradient-3)"/><path d="m143.1 123.206 24.271 141.57 88.607 53.929 88.607-53.929 24.286-141.676-111.865-54.65zm152.129 18.256 6.03-6.031-5.657-5.657 11.314-11.313 22.627 22.627-11.317 11.312-5.657-5.657-6.031 6.03a63.689 63.689 0 0 1 12.962 31.227h8.5v-8h16v32h-16v-8h-8.5a63.689 63.689 0 0 1 -12.964 31.225l6.031 6.03 5.657-5.657 11.313 11.314-22.627 22.627-11.31-11.313 5.657-5.657-6.03-6.031a63.689 63.689 0 0 1 -31.227 12.962v8.5h8v16h-32v-16h8v-8.5a63.689 63.689 0 0 1 -31.225-12.964l-6.03 6.031 5.657 5.657-11.314 11.313-22.627-22.627 11.313-11.31 5.657 5.657 6.031-6.03a63.689 63.689 0 0 1 -12.962-31.227h-8.5v8h-16v-32h16v8h8.5a63.689 63.689 0 0 1 12.964-31.225l-6.031-6.03-5.657 5.657-11.313-11.314 22.627-22.627 11.31 11.313-5.657 5.657 6.03 6.031a63.689 63.689 0 0 1 31.227-12.962v-8.5h-8v-16h32v16h-8v8.5a63.689 63.689 0 0 1 31.225 12.962z" fill="url(#linear-gradient-4)"/><path d="m257.12 32.89-149.643 71.932 30.812 179.717 117.685 71.627 117.686-71.627 30.8-179.663zm102.615 238.179a8 8 0 0 1 -3.725 5.482l-95.877 58.349a8 8 0 0 1 -8.318 0l-95.877-58.353a8 8 0 0 1 -3.725-5.482l-25.907-151.103a8 8 0 0 1 4.419-8.563l122.844-59.05a8 8 0 0 1 6.977.023l120.734 58.986a8 8 0 0 1 4.373 8.54z" fill="url(#linear-gradient-5)"/></g><path d="m448 32h16v16h-16z" fill="url(#linear-gradient-6)"/><path d="m448 64h16v16h-16z" fill="url(#linear-gradient-6)"/><path d="m432 48h16v16h-16z" fill="url(#linear-gradient-8)"/><path d="m464 48h16v16h-16z" fill="url(#linear-gradient-9)"/><path d="m48 104h16v16h-16z" fill="url(#linear-gradient-10)"/><path d="m48 136h16v16h-16z" fill="url(#linear-gradient-10)"/><path d="m32 120h16v16h-16z" fill="url(#linear-gradient-12)"/><path d="m64 120h16v16h-16z" fill="url(#linear-gradient-13)"/></g></svg>