<svg id="filled_outline" height="512" viewBox="0 0 512 512" width="512" xmlns="http://www.w3.org/2000/svg" data-name="filled outline"><path d="m80 128h360v280h-360z" fill="#e0edff"/><path d="m160 408h-136l24 40-24 40h120a16 16 0 0 0 16-16z" fill="#4976f2"/><path d="m352 408h136l-24 40 24 40h-120a16 16 0 0 1 -16-16z" fill="#4976f2"/><path d="m384 344h-256a16.00008 16.00008 0 0 0 -16 16v80l48-16h192l48 16v-80a16.00008 16.00008 0 0 0 -16-16z" fill="#548aff"/><path d="m120 208h128v96h-128z" fill="#bdd1f2"/><path d="m160 424h-32a16 16 0 0 0 -16 16 16 16 0 0 0 16 16h16a16 16 0 0 1 16 16z" fill="#486be0"/><path d="m352 424h32a16 16 0 0 1 16 16 16 16 0 0 1 -16 16h-16a16 16 0 0 0 -16 16z" fill="#486be0"/><path d="m296 208h88v136h-88z" fill="#bdd1f2"/><path d="m64 96h64a0 0 0 0 1 0 0v40a32 32 0 0 1 -32 32 32 32 0 0 1 -32-32v-40a0 0 0 0 1 0 0z" fill="#ffb401"/><path d="m128 96h64a0 0 0 0 1 0 0v40a32 32 0 0 1 -32 32 32 32 0 0 1 -32-32v-40a0 0 0 0 1 0 0z" fill="#ffc431"/><path d="m192 96h64a0 0 0 0 1 0 0v40a32 32 0 0 1 -32 32 32 32 0 0 1 -32-32v-40a0 0 0 0 1 0 0z" fill="#ffb401"/><path d="m256 96h64a0 0 0 0 1 0 0v40a32 32 0 0 1 -32 32 32 32 0 0 1 -32-32v-40a0 0 0 0 1 0 0z" fill="#ffc431"/><path d="m320 96h64a0 0 0 0 1 0 0v40a32 32 0 0 1 -32 32 32 32 0 0 1 -32-32v-40a0 0 0 0 1 0 0z" fill="#ffb401"/><path d="m384 96h64a0 0 0 0 1 0 0v40a32 32 0 0 1 -32 32 32 32 0 0 1 -32-32v-40a0 0 0 0 1 0 0z" fill="#ffc431"/><path d="m128 96 32-72h-64l-32 72z" fill="#ffc431"/><path d="m192 96 32-72h-64l-32 72z" fill="#ffd873"/><path d="m256 96 32-72h-64l-32 72z" fill="#ffc431"/><path d="m320 96 32-72h-64l-32 72z" fill="#ffd873"/><path d="m384 96 32-72h-64l-32 72z" fill="#ffc431"/><path d="m448 96h-64l32-72z" fill="#ffd873"/><path d="m423.31055 20.751a8.00079 8.00079 0 0 0 -7.31055-4.751h-320a8.00079 8.00079 0 0 0 -7.31055 4.751l-32 72 .00354.00146a7.96242 7.96242 0 0 0 -.69299 3.24754v40a39.96343 39.96343 0 0 0 16.028 32h-.028v216h16v-208.80493a39.99166 39.99166 0 0 0 40-15.2229 39.95835 39.95835 0 0 0 64 0 39.95835 39.95835 0 0 0 64 0 39.95835 39.95835 0 0 0 64 0 39.95835 39.95835 0 0 0 64 0 39.9361 39.9361 0 0 0 48 12.67773v211.3501h16v-224h-.022a39.79015 39.79015 0 0 0 8.022-24v-40a7.96242 7.96242 0 0 0 -.693-3.24756l.00354-.00146zm12.37939 67.249h-39.37988l19.69006-44.30249zm-248.88894 0h-46.491l24.889-56h46.491zm42.398-56h46.491l-24.889 56h-46.491zm64 0h46.491l-24.889 56h-46.491zm64 0h46.491l-24.889 56h-46.491zm-256.00027 0h46.49121l-24.88894 56h-46.491zm-5.19873 128a24.02718 24.02718 0 0 1 -24-24v-32h48v32a24.02718 24.02718 0 0 1 -24 24zm64 0a24.02718 24.02718 0 0 1 -24-24v-32h48v32a24.02718 24.02718 0 0 1 -24 24zm64 0a24.02718 24.02718 0 0 1 -24-24v-32h48v32a24.02718 24.02718 0 0 1 -24 24zm64 0a24.02718 24.02718 0 0 1 -24-24v-32h48v32a24.02718 24.02718 0 0 1 -24 24zm64 0a24.02718 24.02718 0 0 1 -24-24v-32h48v32a24.02718 24.02718 0 0 1 -24 24zm40-24v-32h48v32a24 24 0 0 1 -48 0z"/><path d="m248 312a8.00008 8.00008 0 0 0 8-8v-96a8.00008 8.00008 0 0 0 -8-8h-128a8.00008 8.00008 0 0 0 -8 8v96a8.00008 8.00008 0 0 0 8 8zm-120-96h112v80h-112z"/><path d="m494.62451 403.51465a7.99929 7.99929 0 0 0 -6.62451-3.51465h-80v-40a24.02718 24.02718 0 0 0 -24-24h-256a24.02718 24.02718 0 0 0 -24 24v40h-80a8.00028 8.00028 0 0 0 -6.85986 12.11621l21.53027 35.88379-21.53027 35.88379a8.00028 8.00028 0 0 0 6.85986 12.11621h120a24.0275 24.0275 0 0 0 24-24v-40h176v40a24.0275 24.0275 0 0 0 24 24h120a7.99953 7.99953 0 0 0 7.42773-10.9707l-14.81152-37.0293 14.81152-37.0293a8.00009 8.00009 0 0 0 -.80322-7.45605zm-366.62451-51.51465h256a8.00917 8.00917 0 0 1 8 8v57.37622a23.88238 23.88238 0 0 0 -8-1.37622h-256a23.88238 23.88238 0 0 0 -8 1.37622v-57.37622a8.00917 8.00917 0 0 1 8-8zm16 128h-105.87061l16.73047-27.88379a8.00113 8.00113 0 0 0 0-8.23242l-16.73047-27.88379h65.87061v24a24.0275 24.0275 0 0 0 24 24h16a8 8 0 0 1 0 16zm8-30.62378a23.88238 23.88238 0 0 0 -8-1.37622h-16a8 8 0 0 1 0-16h24zm232-17.37622a8 8 0 0 1 0 16h-16a23.88238 23.88238 0 0 0 -8 1.37622v-17.37622zm80.57227 18.9707 11.61132 29.0293h-108.18359a8 8 0 0 1 0-16h16a24.0275 24.0275 0 0 0 24-24v-24h68.18359l-11.61132 29.0293a7.99512 7.99512 0 0 0 0 5.9414z"/><path d="m392 320v-112a8.00008 8.00008 0 0 0 -8-8h-88a8.00008 8.00008 0 0 0 -8 8v112h16v-104h72v104z"/></svg>