<svg id="Line" height="512" viewBox="0 0 64 64" width="512" xmlns="http://www.w3.org/2000/svg"><path d="m61.838 22.984-12.824-10.3a3.085 3.085 0 0 0 -5.014 2.416v43.805a3.093 3.093 0 0 0 3.085 3.095h4.171a3.092 3.092 0 0 0 3.085-3.093v-29.321a1.091 1.091 0 0 1 1.086-1.094h4.482a3.1 3.1 0 0 0 1.929-5.508z" fill="#c4a2fc"/><path d="m37.914 12h-4.171a3.093 3.093 0 0 0 -3.085 3.094v29.316a1.091 1.091 0 0 1 -1.086 1.09h-4.482a3.1 3.1 0 0 0 -1.929 5.509l12.824 10.3a3.085 3.085 0 0 0 5.015-2.409v-43.808a3.094 3.094 0 0 0 -3.086-3.092z" fill="#c4a2fc"/><g fill="#151a6a"><path d="m47 27a22.873 22.873 0 0 0 -14.631-21.431 1 1 0 0 0 -.729 1.864 20.993 20.993 0 0 1 -5.049 40.39l.116-.116a1 1 0 0 0 -1.414-1.414l-2 2a1 1 0 0 0 0 1.416l2 2a1 1 0 0 0 1.414-1.414l-.408-.408a23.031 23.031 0 0 0 20.701-22.887z"/><path d="m16.363 46.568a20.993 20.993 0 0 1 5.046-40.391l-.116.116a1 1 0 0 0 1.414 1.414l2-2a1 1 0 0 0 0-1.416l-2-2a1 1 0 0 0 -1.414 1.414l.408.408a23 23 0 0 0 -6.065 44.317 1 1 0 0 0 .727-1.864z"/><path d="m11.979 14.98a16.953 16.953 0 0 0 .578 24.566.97.97 0 0 0 .4.362 16.958 16.958 0 0 0 23-.829l.019-.018c.014-.014.03-.025.044-.04.03-.03.055-.063.085-.093l.016-.018a16.951 16.951 0 0 0 .785-22.953.978.978 0 0 0 -.365-.4 16.963 16.963 0 0 0 -24.562-.577zm22.521 21.111-2.747-2.746a21.226 21.226 0 0 0 2.129-2.762 18.916 18.916 0 0 1 .618 5.508zm-21-18.18 6.937 6.937a18.974 18.974 0 0 1 -4.495 3.014 18.774 18.774 0 0 1 -2.442-9.951zm8.351 8.351 7.083 7.083a19.055 19.055 0 0 1 -3.83 2.687 19.091 19.091 0 0 1 -8.081-6.478 20.975 20.975 0 0 0 4.823-3.292zm8.483 8.483 2.761 2.761a18.91 18.91 0 0 1 -5.517-.62 21.267 21.267 0 0 0 2.751-2.141zm.014-2.814-7.088-7.083a21 21 0 0 0 3.292-4.829 19.093 19.093 0 0 1 6.478 8.081 19.055 19.055 0 0 1 -2.687 3.831zm-8.5-8.5-6.94-6.931a18.767 18.767 0 0 1 9.953 2.441 18.989 18.989 0 0 1 -3.015 4.493zm-6.128-8.941a14.907 14.907 0 0 1 10.944-2.243 18.93 18.93 0 0 1 -1.022 4.832 20.735 20.735 0 0 0 -9.922-2.589zm-4.232 4.231a20.736 20.736 0 0 0 2.589 9.923 18.929 18.929 0 0 1 -4.832 1.021 14.911 14.911 0 0 1 2.243-10.944zm-1.756 12.9a20.921 20.921 0 0 0 5.414-1.252 21.236 21.236 0 0 0 7.535 6.731 18.971 18.971 0 0 1 -8.773.974 14.685 14.685 0 0 1 -4.176-6.452zm7.134 8.579a20.742 20.742 0 0 0 8.322-2 20.769 20.769 0 0 0 7.087 1.31 15.011 15.011 0 0 1 -15.409.69zm19.644-4.919a20.769 20.769 0 0 0 -1.289-7.081 20.731 20.731 0 0 0 2-8.3 15.015 15.015 0 0 1 -.711 15.381zm-1.437-18.371a18.942 18.942 0 0 1 -.974 8.775 21.219 21.219 0 0 0 -6.731-7.538 20.947 20.947 0 0 0 1.253-5.413 14.677 14.677 0 0 1 6.452 4.176z"/></g></svg>