<svg id="Layer_1" enable-background="new 0 0 128 128" height="512" viewBox="0 0 128 128" width="512" xmlns="http://www.w3.org/2000/svg"><g><path d="m24.2 59.4h79.6v39.5h-79.6z" fill="#fb4d4f"/><g fill="#eaf2f9"><path d="m34.1 90.6v-16h3.3v13.3h8.1v2.7z"/><path d="m51.9 90.6v-16.1h3.3v16.1z"/><path d="m66.5 90.6-5.8-16.1h3.5l4.1 11.9 3.9-11.9h3.5l-5.7 16.1z"/><path d="m81.6 90.6v-16.1h12v2.7h-8.7v3.6h8.1v2.7h-8.1v4.4h9v2.7z"/></g><circle cx="64" cy="59.6" fill="#fed943" r="8.2"/><path d="m49 47c-.8-1-.2-2.1.1-2.4 8.3-8.3 21.7-8.3 29.9 0 .7.7.7 1.8 0 2.5s-1.8.7-2.5 0c-6.9-6.9-18.2-7-25 0-.4.4-1.7.9-2.5-.1z" fill="#fd9126"/><path d="m41.2 39.3c-1-1-.3-2.2 0-2.5 12.6-12.6 33-12.6 45.6 0 .7.7.7 1.8 0 2.5s-1.8.7-2.5 0c-11.2-11.2-29.4-11.2-40.7 0-.3.3-1.5.9-2.4 0z" fill="#fb4d4f"/></g></svg>